<?xml version="1.0" encoding="utf-8"?>
<!-- Generator: Adobe Illustrator 25.0.1, SVG Export Plug-In . SVG Version: 6.00 Build 0)  -->
<svg version="1.1" id="Layer_1" xmlns="http://www.w3.org/2000/svg" xmlns:xlink="http://www.w3.org/1999/xlink" x="0px" y="0px"
	 viewBox="0 0 1080 720" style="enable-background:new 0 0 1080 720;" xml:space="preserve">
<style type="text/css">
	.st0{fill:#FFFFFF;}
</style>
<g>
	<path class="st0" d="M249.8,404.9v-15.2c0-8.3-1.6-14.4-4.9-18.1c-3.3-3.7-7.1-5.6-11.4-5.6c-6.9,0-11.6,1.8-14.1,5.3
		c-2.5,3.5-3.8,9-3.8,16.4v99.5c0,7.4,1.3,12.9,3.8,16.4c2.5,3.5,7.2,5.3,14.1,5.3c6.1,0,10.4-1.7,12.8-5.2
		c2.4-3.4,3.5-8.3,3.5-14.7v-23.6h33.7V488c0,6.9-1,13.4-3.1,19.6c-2.1,6.2-5.2,11.5-9.2,16c-4.1,4.5-9.3,8.1-15.6,10.7
		c-6.3,2.6-13.7,3.9-22,3.9c-8.9,0-16.5-1.3-23-3.9c-6.4-2.6-11.8-6.2-16-10.7c-4.3-4.5-7.4-9.9-9.5-16c-2.1-6.2-3.1-12.7-3.1-19.6
		V387c0-6.9,1-13.4,3.1-19.6c2.1-6.2,5.2-11.5,9.5-16c4.3-4.5,9.6-8.1,16-10.7c6.4-2.6,14.1-3.9,23-3.9c8.3,0,15.7,1.5,22,4.3
		c6.3,2.9,11.5,6.8,15.6,11.7c4.1,4.9,7.2,10.6,9.2,17.1c2.1,6.5,3.1,13.4,3.1,20.7v14.4H249.8z"/>
	<polygon class="st0" points="317.7,535.6 317.7,339.4 351.4,339.4 351.4,419.3 387.3,419.3 387.3,339.4 421,339.4 421,535.6 
		387.3,535.6 387.3,448.6 351.4,448.6 351.4,535.6 	"/>
	<rect x="458.2" y="339.4" class="st0" width="33.7" height="196.2"/>
	<polygon class="st0" points="548.7,368.8 516.1,368.8 516.1,339.4 615,339.4 615,368.8 582.4,368.8 582.4,535.6 548.7,535.6 	"/>
	<polygon class="st0" points="693.2,339.4 721,339.4 743.8,464.4 744.3,464.4 763.1,339.4 794.6,339.4 760.1,535.6 731.8,535.6 
		707.4,406 706.8,406 684,535.6 655.8,535.6 618.5,339.4 650,339.4 670.7,464.4 671.2,464.4 	"/>
	<path class="st0" d="M825.6,535.6H793l36.1-196.2h41.8l36.1,196.2h-32.6l-6-43.5h-36.9L825.6,535.6z M836.4,462.8h27.2l-13.3-84.2
		h-0.5L836.4,462.8z"/>
	<polygon class="st0" points="926.6,535.6 926.6,339.4 957.9,339.4 998.9,451.6 999.5,451.6 999.5,339.4 1029.9,339.4 1029.9,535.6 
		1000.5,535.6 957.6,413.1 957.1,413.1 957.1,535.6 	"/>
	<path class="st0" d="M214.4,585.7l-0.2,6.2c0,0-7.6-0.9-11.2-0.9c-10.9,0-13.9,4.6-13.9,17.1c0,13.9,2.2,18.9,13.9,18.9
		c3.6,0,11.3-0.9,11.3-0.9l0.3,6.2c0,0-8.9,1.3-13.2,1.3c-15.2,0-19.6-6.9-19.6-25.5c0-17.2,5.5-23.8,19.7-23.8
		C205.9,584.2,214.4,585.7,214.4,585.7"/>
	<path class="st0" d="M271.6,608.5c0,16.4-4.2,25.2-20.2,25.2c-16,0-20.4-8-20.4-25.4c0-16.3,5.4-24,20.4-24
		C265.7,584.2,271.6,592.2,271.6,608.5 M264.3,608.5c0-12.6-3.8-17.8-12.9-17.8c-10.1,0-13.1,4.6-13.1,17.6c0,13.3,1.9,19,13.1,19
		C262.5,627.3,264.3,621,264.3,608.5"/>
	<rect x="291.8" y="564.5" class="st0" width="7" height="68.2"/>
	<rect x="322.4" y="564.5" class="st0" width="7" height="68.2"/>
	<path class="st0" d="M386.9,626.3l0.2,5.8c0,0-10.7,1.5-18.4,1.5c-14.2,0-18.9-8.3-18.9-24.4c0-18,7.9-25,19.9-25
		c12.5,0,19.1,6.7,19.1,22.2l-0.4,5.5h-31.5c0.1,10,3.1,15.2,12.5,15.2C376.6,627.2,386.9,626.3,386.9,626.3 M381.6,606.2
		c0-11.4-3.7-15.6-12-15.6c-8.2,0-12.7,4.5-12.7,15.6H381.6z"/>
	<path class="st0" d="M405.2,640.7c0-5.5,2.6-8.1,7.5-11.8c-1.7-1.1-2.6-3.6-2.6-6.5c0-1.8,3.1-7.5,3.1-7.5
		c-3.9-1.8-7.4-5.5-7.4-14.3c0-11.7,7.1-16.2,17.7-16.2c4.8,0,9.9,1.2,9.9,1.2l13.9-0.3v6.1h-8.5c1.7,1.8,2.9,4.2,2.9,9.2
		c0,12.4-6.1,16.1-18.4,16.1c-0.9,0-3.6-0.2-4.6-0.4c0,0-1.7,4.2-1.7,5.4c0,3.8,0.9,4.4,11.5,4.4c13.6,0,18.4,2.7,18.4,14
		c0,11-7.8,15.5-21.2,15.5C410.6,655.4,405.2,652,405.2,640.7 M417.5,631.7c-3.9,2.9-5.3,4.7-5.3,8.4c0,6.6,2.8,8.9,13.5,8.9
		c9.6,0,13.9-2.6,13.9-8.8c0-7.2-3.1-8-11.7-8C424.4,632.2,417.5,631.7,417.5,631.7 M434.5,600.5c0-8.2-3-10.1-11.1-10.1
		c-7,0-10.5,2.6-10.5,10.1c0,6.8,2.4,10,10.3,10C431.2,610.4,434.5,608,434.5,600.5"/>
	<path class="st0" d="M499.3,626.3l0.2,5.8c0,0-10.7,1.5-18.4,1.5c-14.2,0-18.9-8.3-18.9-24.4c0-18,7.9-25,19.9-25
		c12.5,0,19.1,6.7,19.1,22.2l-0.4,5.5h-31.5c0.1,10,3.1,15.2,12.5,15.2C489.1,627.2,499.3,626.3,499.3,626.3 M494.1,606.2
		c0-11.4-3.7-15.6-12-15.6c-8.2,0-12.7,4.5-12.7,15.6H494.1z"/>
	<path class="st0" d="M588.4,608.5c0,16.4-4.2,25.2-20.2,25.2c-16,0-20.4-8-20.4-25.4c0-16.3,5.4-24,20.4-24
		C582.5,584.2,588.4,592.2,588.4,608.5 M581.1,608.5c0-12.6-3.8-17.8-12.9-17.8c-10.1,0-13.1,4.6-13.1,17.6c0,13.3,1.9,19,13.1,19
		C579.4,627.3,581.1,621,581.1,608.5"/>
	<path class="st0" d="M616.4,632.7h-7v-41h-6v-6.5h6v-4.3c0-13.7,3.4-17.3,12.7-17.3c3.3,0,9.6,0.7,9.6,0.7l-0.1,5.9
		c0,0-5.3-0.2-8.1-0.2c-5.3,0-7.1,2.3-7.1,11v4.2h13.9v6.5h-13.9V632.7z"/>
	<path class="st0" d="M707.2,585.7l-0.2,6.2c0,0-7.6-0.9-11.2-0.9c-10.9,0-13.9,4.6-13.9,17.1c0,13.9,2.2,18.9,13.9,18.9
		c3.6,0,11.3-0.9,11.3-0.9l0.3,6.2c0,0-8.9,1.3-13.2,1.3c-15.2,0-19.6-6.9-19.6-25.5c0-17.2,5.5-23.8,19.7-23.8
		C698.7,584.2,707.2,585.7,707.2,585.7"/>
	<path class="st0" d="M764.4,608.5c0,16.4-4.2,25.2-20.2,25.2c-16,0-20.4-8-20.4-25.4c0-16.3,5.4-24,20.4-24
		C758.5,584.2,764.4,592.2,764.4,608.5 M757,608.5c0-12.6-3.8-17.8-12.9-17.8c-10.1,0-13.1,4.6-13.1,17.6c0,13.3,1.9,19,13.1,19
		C755.3,627.3,757,621,757,608.5"/>
	<path class="st0" d="M822.1,608.5c0,16.4-4.2,25.2-20.2,25.2c-16,0-20.4-8-20.4-25.4c0-16.3,5.4-24,20.4-24
		C816.2,584.2,822.1,592.2,822.1,608.5 M814.7,608.5c0-12.6-3.8-17.8-12.9-17.8c-10.1,0-13.1,4.6-13.1,17.6c0,13.3,1.9,19,13.1,19
		C813,627.3,814.7,621,814.7,608.5"/>
	<polygon class="st0" points="842.6,632.7 842.6,564.5 849.7,564.5 849.7,604.3 857,603.9 871.2,585.2 879.2,585.2 863.3,607 
		879.5,632.7 871.4,632.7 857.1,610.9 849.7,611.3 849.7,632.7 	"/>
	<path class="st0" d="M931,626.3l0.2,5.8c0,0-10.7,1.5-18.4,1.5c-14.3,0-18.9-8.3-18.9-24.4c0-18,7.9-25,19.9-25
		c12.5,0,19.1,6.7,19.1,22.2l-0.4,5.5h-31.4c0.1,10,3.1,15.2,12.5,15.2C920.7,627.2,931,626.3,931,626.3 M925.8,606.2
		c0-11.4-3.7-15.6-12-15.6c-8.2,0-12.7,4.5-12.7,15.6H925.8z"/>
	<path class="st0" d="M953.1,585.2h7.1v6.3c0,0,7.3-5.5,16.5-7.2v7.4c-8.9,1.7-16.5,6.5-16.5,6.5v34.5h-7.1V585.2z"/>
	<polygon class="st0" points="995.6,585.2 1007.5,625.8 1010.7,625.8 1022.6,585.2 1029.7,585.2 1009.9,653.8 1002.8,653.8 
		1008.9,632.7 1002,632.7 988.5,585.2 	"/>
	<g>
		<path class="st0" d="M157.4,284c11.9-15.5,28.2-27.1,45-37.2c17-9.8,35.2-17.3,53.8-23.3l14.1-4.1l14.3-3.3
			c9.5-2.4,19.2-3.5,28.8-5c9.7-1.2,19.4-1.8,29-2.6c9.7-0.1,19.4-0.4,29.1-0.2l4.9,0.1l0.9,4.1c2.3,10.7,4.4,21.5,6.4,32.4
			c2,10.8,3.8,21.7,5.4,32.6c-4.2-10.2-8.1-20.5-11.9-30.9c-3.8-10.3-7.4-20.7-10.9-31.1l5.8,4.2c-9.4,1.7-18.8,2.7-28.1,4.2
			c-9.3,1.8-18.6,2.9-27.8,4.8c-18.4,3.7-36.8,7.3-54.8,12.4c-18,4.9-35.8,10.6-53.2,17.5C190.8,265.6,173.6,273.5,157.4,284"/>
		<path class="st0" d="M161.2,297c5.8,14.3,10.9,28.7,16,43.2l-6.6-2.3c14.3-12.7,29.5-24,45.6-33.9c16-10.2,32.9-18.9,50.4-26.3
			c17.5-7.3,35.8-13.3,54.5-17.1c18.7-3.7,38-5.5,56.9-3.1c-18.4,4.6-35.9,9.9-53.2,16.3c-8.6,3.2-17.1,6.6-25.6,10
			c-8.4,3.6-16.8,7.2-25.1,11c-16.7,7.6-33.1,15.7-49.5,24c-16.3,8.5-32.8,17-48.9,26l-5.5,3.1l-1-5.4
			C166.2,327.3,163.4,312.2,161.2,297"/>
		<path class="st0" d="M371.8,213.9c0.4-8.7,3.7-16.9,6.8-24.9c3.2-7.9,7.3-16,12.3-23.1c4.5-7,7.7-14.6,9-22.1
			c1.2-7.5,0-14.8-3.1-21.5c-3-6.7-8-12.8-13.5-18.5c-5.4-5.5-11.7-10.2-18.5-14c-13.5-7.9-29.1-12.1-44.9-14
			c-31.8-3.1-65.1,3.5-94.4,19c-6.6,3.6-12.7,9.5-18.2,15.6c-5.5,6.1-10.4,12.9-14.4,20.2c-8,14.4-12.5,31.5-9.2,48.5
			c-5.9-16.3-3.6-35.2,3.3-51.4c3.5-8.2,8-15.9,13.3-23.1c5.4-7.1,11.4-13.8,19.3-19.3c28.9-20.8,65.7-31.5,102.2-28
			C339.9,59,358,64.7,374,74.5c7.9,5.1,15.1,11.2,21.2,18.4c6.1,7,11.2,15.1,14.4,24.4c3.4,9.2,3.4,19.9,0.5,29
			c-2.8,9.2-8.3,16.8-14.3,23.3c-6.2,5.9-10.2,13.2-14.4,20.7C377.4,197.8,373.2,205.4,371.8,213.9"/>
		<path class="st0" d="M197.8,115.4c-3.1,7.8-11.2,12.3-18.2,15.9c-7.3,3.7-14.9,6.6-22.2,9.9c-14.7,6.2-28.8,13.3-41.1,22.5
			C104,173,93.7,184.3,86,197.3c-7.6,13-13.1,27.5-16.4,42.3c-2.9,14.8-4.3,30-1.6,44.6c2.4,14.6,8.2,28.6,18,39.1
			c9.6,10.6,23.8,16.6,38.8,15.8c15.1-0.6,29.8-7.8,43.3-16.6c-10.9,11.8-25.1,21.9-42.2,25.2c-8.5,1.5-17.6,1.2-26.2-1.3
			c-8.6-2.6-16.5-7.2-23.1-13.3c-13.2-12.2-21-29-24.4-45.9c-3.3-17.1-2.6-34.6,1.3-51.2c4-16.5,10-32.5,19.5-46.8
			c9.3-14.4,21.8-26.7,36.1-35.6c14.2-9.2,30-14.9,45.5-19.5c7.8-2.2,15.6-4.3,23.2-6.7C185.2,124.8,193.2,122.3,197.8,115.4"/>
		<path class="st0" d="M125.5,314c6.9-3.7,11.8-9.7,16.2-15.8c4.4-6.1,7.9-12.9,11.2-19.6c3.1-6.9,6.2-13.8,8.7-21
			c2.7-7.2,4.8-14.2,8-22.1c3.1-7.6,7.5-14.9,12.7-21.5c5.7-6.2,11.9-12.3,19.6-15.9c15-7.9,32.7-8.9,47.5-3.5
			c-15.7-0.2-30.7,3.9-42.6,11.9c-11.9,8.1-20.3,20.2-25.7,33.8c-2.9,6.4-5.4,14.4-8.6,21.6c-3.3,7.3-6.7,14.5-11.1,21.3
			c-4.3,6.8-9.2,13.3-15.1,18.9C140.4,307.5,133.5,312.8,125.5,314"/>
	</g>
</g>
</svg>
